<?xml version="1.0" standalone="no"?>
<!DOCTYPE svg PUBLIC "-//W3C//DTD SVG 20010904//EN"
 "http://www.w3.org/TR/2001/REC-SVG-20010904/DTD/svg10.dtd">
<svg version="1.0" xmlns="http://www.w3.org/2000/svg"
 width="129.000000pt" height="129.000000pt" viewBox="0 0 129.000000 129.000000"
 preserveAspectRatio="xMidYMid meet">

<g transform="translate(0.000000,129.000000) scale(0.100000,-0.100000)"
fill="#000000" stroke="none">
<path d="M640 1213 c-8 -3 -118 -64 -244 -137 -254 -146 -302 -185 -349 -285
-59 -124 -43 -283 37 -393 45 -60 70 -78 251 -183 307 -179 332 -184 481 -111
150 74 427 241 449 270 17 24 20 45 23 163 3 117 1 137 -14 154 -9 10 -27 19
-40 19 -12 0 -136 -65 -275 -145 -138 -80 -261 -148 -273 -151 -15 -3 -79 28
-214 106 -120 69 -202 110 -215 108 -30 -4 -36 -65 -10 -95 30 -35 399 -243
430 -243 17 1 119 54 258 134 127 74 233 132 238 129 4 -2 7 -29 7 -58 0 -65
19 -50 -269 -214 -161 -92 -201 -111 -235 -111 -35 0 -76 20 -251 121 -116 66
-225 134 -242 152 -49 46 -66 101 -61 192 3 72 6 79 36 106 56 50 81 43 291
-78 151 -87 194 -108 226 -108 33 0 82 24 293 145 258 148 273 160 258 207 -8
25 -491 302 -536 308 -19 2 -42 2 -50 -2z"/>
</g>
</svg>
