<?xml version="1.0" standalone="no"?>
<!DOCTYPE svg PUBLIC "-//W3C//DTD SVG 20010904//EN"
 "http://www.w3.org/TR/2001/REC-SVG-20010904/DTD/svg10.dtd">
<svg version="1.0" xmlns="http://www.w3.org/2000/svg"
 width="120.000000pt" height="120.000000pt" viewBox="0 0 120.000000 120.000000"
 preserveAspectRatio="xMidYMid meet">

<g transform="translate(0.000000,120.000000) scale(0.100000,-0.100000)"
fill="#000000" stroke="none">
<path d="M825 939 c-59 -21 -317 -129 -590 -248 -143 -63 -185 -93 -185 -135
0 -43 42 -69 181 -115 166 -54 193 -68 374 -187 157 -104 203 -121 250 -90 13
9 31 29 40 45 28 55 121 631 110 682 -8 37 -50 69 -89 69 -17 -1 -58 -10 -91
-21z m80 -116 c-3 -16 -16 -102 -30 -193 -34 -226 -60 -359 -72 -371 -12 -12
-248 143 -271 179 -14 22 -10 27 123 162 194 196 182 197 -94 13 -106 -71
-163 -103 -183 -103 -33 0 -178 41 -178 50 0 4 127 61 283 128 349 150 377
161 404 161 19 1 22 -3 18 -26z"/>
</g>
</svg>
