<?xml version="1.0" standalone="no"?>
<!DOCTYPE svg PUBLIC "-//W3C//DTD SVG 20010904//EN"
 "http://www.w3.org/TR/2001/REC-SVG-20010904/DTD/svg10.dtd">
<svg version="1.0" xmlns="http://www.w3.org/2000/svg"
 width="120.000000pt" height="120.000000pt" viewBox="0 0 120.000000 120.000000"
 preserveAspectRatio="xMidYMid meet">

<g transform="translate(0.000000,120.000000) scale(0.100000,-0.100000)"
fill="#000000" stroke="none">
<path d="M112 1018 c14 -18 98 -131 188 -251 l163 -218 -20 -22 c-18 -21 -279
-321 -311 -359 -14 -17 -11 -18 50 -18 l66 0 133 153 c73 83 136 153 140 155
4 2 60 -67 125 -152 l116 -156 175 0 175 0 -24 33 c-341 452 -368 490 -355
506 8 9 74 86 148 171 74 85 140 163 148 173 12 16 9 17 -51 17 l-65 0 -123
-142 c-67 -79 -126 -144 -129 -146 -4 -1 -55 63 -115 143 l-108 145 -175 0
-175 0 24 -32z m513 -385 c131 -175 249 -333 263 -351 l24 -32 -50 0 -50 0
-237 318 c-131 174 -249 332 -263 350 l-24 32 50 0 50 0 237 -317z"/>
</g>
</svg>
